<svg id="Слой_1" data-name="Слой 1" xmlns="http://www.w3.org/2000/svg" width="33.4" height="24" viewBox="0 0 33.4 24">
  <title>acloud_logo_white</title>
  <g>
    <path d="M24.53,25.92V28.3a.2.2,0,0,0,.2.2h1.64A7.82,7.82,0,0,0,27.84,13,9.34,9.34,0,0,0,10,10a4.14,4.14,0,0,0-3.15.16A5.08,5.08,0,0,0,4.51,12.3a4.29,4.29,0,0,0-.32,3.58A6.76,6.76,0,0,0,7.59,28.5h2.65a.2.2,0,0,0,.2-.2V25.92a.2.2,0,0,0-.2-.2H8.46A4.49,4.49,0,0,1,4,22.23,4.31,4.31,0,0,1,6.09,17.6c1.34-.77,1.43-.92.87-2.29a2.23,2.23,0,0,1-.14-.75,2.43,2.43,0,0,1,2.43-2.43,3.46,3.46,0,0,1,1.31.22c1.11.45,1.24,0,1.76-1.12a6.82,6.82,0,0,1,6.15-4,6.74,6.74,0,0,1,6.72,6.15c.12,1.39.12,1.39,1.57,1.72a5.34,5.34,0,0,1,4.1,6.8,5.47,5.47,0,0,1-5.29,3.77" transform="translate(-0.8 -4.5)" style="fill: #fff"/>
    <path d="M26.37,25.72H24.73a.2.2,0,0,0-.2.2l1-.2h-.84" transform="translate(-0.8 -4.5)" style="fill: #fff"/>
  </g>
  <path d="M11.22,28.5H23.78a.23.23,0,0,0,.22-.22V25.94a.23.23,0,0,0-.22-.22H11.22a.23.23,0,0,0-.22.22v2.34A.23.23,0,0,0,11.22,28.5Zm4.31-17.28c-.14.48-3.4,9.58-3.53,9.92-.07.14,0,.27.07.27s1.9.75,2,.75.2-.07.2-.14.75-2.11.82-2.31h4.89c.07.2.82,2.24.82,2.31a.27.27,0,0,0,.27.14c.14,0,1.83-.75,2-.75a.41.41,0,0,0,.07-.27c-.07-.27-3.4-9.51-3.53-9.92-.34-1-.75-1.9-2-1.9S15.8,10.2,15.53,11.22Zm3.74,6.18h-3.4L17.5,12.3Z" transform="translate(-0.8 -4.5)" style="fill: #fff"/>
</svg>
