<?xml version="1.0" encoding="utf-8"?>
<!-- Generator: Adobe Illustrator 21.0.0, SVG Export Plug-In . SVG Version: 6.00 Build 0)  -->
<svg version="1.1" id="Слой_1" xmlns="http://www.w3.org/2000/svg" xmlns:xlink="http://www.w3.org/1999/xlink" x="0px" y="0px"
	 viewBox="0 0 30 30" style="enable-background:new 0 0 30 30;" xml:space="preserve">
<style type="text/css">
	.st0{fill:#FFFFFF;}
</style>
<image style="overflow:visible;" width="512" height="512" xlink:href="../../Git Быстрый старт/repo-10.01/src/components/MainCard/cloud1_white.png"  transform="matrix(5.273438e-02 0 0 5.273438e-02 32.1667 0.8333)">
</image>
<g>
	<path class="st0" d="M68.4,20.1c0,0.2-0.1,0.3-0.2,0.4c-0.7,0.3-1.5,0.4-2.6,0.4c-1.5,0-2.7-0.4-3.5-1.3s-1.3-2.1-1.3-3.5
		c0-1.6,0.5-2.8,1.5-3.8c1-1,2.2-1.5,3.8-1.5c0.8,0,1.5,0.1,2.1,0.3c0.2,0.1,0.3,0.2,0.3,0.4v1.2c0,0.3-0.3,0.5-0.5,0.4
		c-0.5-0.2-1.1-0.3-1.7-0.3c-0.9,0-1.7,0.3-2.2,0.9s-0.8,1.4-0.8,2.4c0,0.9,0.3,1.7,0.8,2.3c0.5,0.6,1.3,0.8,2.2,0.8
		c0.6,0,1.3-0.1,1.8-0.4c0.3-0.1,0.5,0.1,0.5,0.4V20.1z"/>
	<path class="st0" d="M71.6,20.7h-1.4c-0.2,0-0.4-0.2-0.4-0.4v-9.6c0-0.2,0.2-0.4,0.4-0.4h1.4c0.2,0,0.4,0.2,0.4,0.4v9.6
		C72,20.5,71.9,20.7,71.6,20.7z"/>
	<path class="st0" d="M77.2,20.9c-1.2,0-2.1-0.3-2.8-1c-0.7-0.7-1-1.5-1-2.7c0-1.2,0.3-2.1,1-2.7s1.6-1,2.8-1c1.2,0,2.1,0.3,2.7,1
		s1,1.5,1,2.6c0,1.2-0.3,2.1-1,2.8C79.3,20.5,78.4,20.9,77.2,20.9z M77.2,15.2c-0.5,0-0.9,0.2-1.2,0.5s-0.4,0.8-0.4,1.5
		c0,1.3,0.5,2,1.6,2c1,0,1.6-0.7,1.6-2.1C78.8,15.8,78.3,15.2,77.2,15.2z"/>
	<path class="st0" d="M89.1,20.3c0,0.2-0.2,0.4-0.4,0.4h-1.8v-1.1h0c-0.5,0.8-1.2,1.2-2.1,1.2c-1.6,0-2.4-1-2.4-2.9v-3.8
		c0-0.2,0.2-0.4,0.4-0.4h1.4c0.2,0,0.4,0.2,0.4,0.4v3.6c0,1,0.4,1.5,1.2,1.5c0.4,0,0.7-0.1,0.9-0.4c0.2-0.3,0.3-0.6,0.3-1.1v-3.6
		c0-0.2,0.2-0.4,0.4-0.4h1.4c0.2,0,0.4,0.2,0.4,0.4V20.3z"/>
	<path class="st0" d="M97.7,20.3c0,0.2-0.2,0.4-0.4,0.4h-1.8v-1h0c-0.5,0.8-1.2,1.1-2.2,1.1c-0.9,0-1.6-0.3-2.1-0.9
		c-0.5-0.6-0.8-1.5-0.8-2.6c0-1.2,0.3-2.1,0.9-2.8s1.4-1,2.3-1c0.9,0,1.5,0.3,1.9,1h0v-3.8c0-0.2,0.2-0.4,0.4-0.4h1.4
		c0.2,0,0.4,0.2,0.4,0.4V20.3z M95.6,17.3v-0.5c0-0.5-0.1-0.8-0.4-1.1s-0.6-0.5-1-0.5c-0.5,0-0.9,0.2-1.1,0.6
		c-0.3,0.4-0.4,0.9-0.4,1.5c0,0.6,0.1,1.1,0.4,1.4s0.6,0.5,1.1,0.5c0.4,0,0.8-0.2,1.1-0.5C95.5,18.3,95.6,17.9,95.6,17.3z"/>
</g>
<path class="st0" d="M97.4,24.5H61.5c-0.1,0-0.2-0.1-0.2-0.2v-1.4c0-0.1,0.1-0.2,0.2-0.2h35.9c0.1,0,0.2,0.1,0.2,0.2v1.4
	C97.6,24.4,97.5,24.5,97.4,24.5z"/>
</svg>
