<?xml version="1.0" encoding="utf-8"?>
<!-- Generator: Adobe Illustrator 21.0.0, SVG Export Plug-In . SVG Version: 6.00 Build 0)  -->
<svg version="1.1" id="Слой_1" xmlns="http://www.w3.org/2000/svg" xmlns:xlink="http://www.w3.org/1999/xlink" x="0px" y="0px"
	 viewBox="0 0 89.9 30" style="enable-background:new 0 0 89.9 30;" xml:space="preserve">
<style type="text/css">
	.st0{fill:none;}
	.st1{fill:#FFFFFF;}
</style>
<g>
	<rect class="st0" width="30" height="30"/>
	<path class="st1" d="M2.4,28.9h18.1c0.1,0,0.3-0.1,0.3-0.3v-3.4c0-0.1-0.1-0.3-0.3-0.3H2.4c-0.1,0-0.3,0.1-0.3,0.3v3.4
		C2.1,28.7,2.2,28.9,2.4,28.9z M8.7,4C8.5,4.7,3.8,17.8,3.6,18.3c-0.1,0.2,0,0.4,0.1,0.4c0.2,0,2.7,1.1,2.8,1.1
		c0.1,0,0.3-0.1,0.3-0.2s1.1-3,1.2-3.3H15c0.1,0.3,1.2,3.2,1.2,3.3c0.1,0.2,0.3,0.2,0.4,0.2c0.2,0,2.6-1.1,2.8-1.1
		c0.1-0.1,0.1-0.3,0.1-0.4C19.4,17.9,14.6,4.6,14.4,4c-0.5-1.4-1.1-2.7-2.9-2.7C9.6,1.3,9.1,2.5,8.7,4z M14,12.9H9.2l2.4-7.3
		L14,12.9z"/>
</g>
<g>
	<g>
		<path class="st1" d="M36.5,18.7c0,0.2-0.1,0.3-0.2,0.4c-1.2,0.5-2.8,0.8-4.8,0.8c-2.7,0-4.8-0.8-6.3-2.4c-1.5-1.6-2.3-3.7-2.3-6.3
			c0-2.8,0.9-5.1,2.6-6.8c1.7-1.7,4-2.6,6.7-2.6c1.6,0,2.9,0.2,4,0.6c0.2,0.1,0.3,0.2,0.3,0.4v2.8c0,0.3-0.3,0.5-0.6,0.4
			c-1-0.5-2.2-0.7-3.4-0.7c-1.6,0-3,0.5-4,1.6c-1,1-1.5,2.4-1.5,4.2c0,1.7,0.5,3,1.4,4c1,1,2.2,1.5,3.8,1.5c1.3,0,2.5-0.3,3.6-0.8
			c0.3-0.1,0.6,0.1,0.6,0.4V18.7z"/>
		<path class="st1" d="M42.7,19.6h-3.1c-0.2,0-0.4-0.2-0.4-0.4V1.5c0-0.2,0.2-0.4,0.4-0.4h3.1c0.2,0,0.4,0.2,0.4,0.4v17.7
			C43.1,19.4,42.9,19.6,42.7,19.6z"/>
		<path class="st1" d="M52.3,19.9c-2.1,0-3.7-0.6-4.9-1.8s-1.8-2.8-1.8-4.8c0-2.1,0.6-3.7,1.9-4.9c1.2-1.2,2.9-1.8,5-1.8
			c2.1,0,3.7,0.6,4.9,1.8c1.2,1.2,1.8,2.7,1.8,4.6c0,2.1-0.6,3.7-1.8,4.9S54.4,19.9,52.3,19.9z M52.4,9.7c-0.9,0-1.6,0.3-2.1,0.9
			c-0.5,0.6-0.8,1.5-0.8,2.7c0,2.4,1,3.6,2.9,3.6c1.8,0,2.8-1.2,2.8-3.7C55.2,10.9,54.2,9.7,52.4,9.7z"/>
		<path class="st1" d="M73.1,19.6h-3c-0.2,0-0.4-0.2-0.4-0.4v-1.5h-0.1c-1,1.5-2.2,2.2-3.8,2.2c-2.9,0-4.3-1.8-4.3-5.3V7.5
			c0-0.2,0.2-0.4,0.4-0.4h3c0.2,0,0.4,0.2,0.4,0.4v6.8c0,1.8,0.7,2.6,2.1,2.6c0.7,0,1.2-0.2,1.7-0.7c0.4-0.5,0.6-1.1,0.6-2V7.5
			c0-0.2,0.2-0.4,0.4-0.4h3c0.2,0,0.4,0.2,0.4,0.4v11.7C73.5,19.4,73.3,19.6,73.1,19.6z"/>
		<path class="st1" d="M88.5,19.6h-3.1c-0.2,0-0.4-0.2-0.4-0.4v-1.3h0c-0.9,1.4-2.2,2-3.9,2c-1.6,0-2.8-0.6-3.8-1.7
			c-1-1.1-1.4-2.6-1.4-4.6c0-2.1,0.5-3.7,1.6-5c1.1-1.2,2.4-1.9,4.1-1.9c1.6,0,2.7,0.6,3.4,1.7h0v-7c0-0.2,0.2-0.4,0.4-0.4h3.1
			c0.2,0,0.4,0.2,0.4,0.4v17.7C88.9,19.4,88.8,19.6,88.5,19.6z M85.2,13.5v-0.9c0-0.8-0.2-1.5-0.7-2C84,10,83.4,9.7,82.6,9.7
			c-0.9,0-1.5,0.3-2,1c-0.5,0.7-0.7,1.6-0.7,2.8c0,1.1,0.2,1.9,0.7,2.5c0.5,0.6,1.1,0.9,1.9,0.9c0.8,0,1.4-0.3,1.9-0.9
			S85.2,14.6,85.2,13.5z"/>
	</g>
	<path class="st1" d="M88.5,28.9H23.3c-0.2,0-0.4-0.2-0.4-0.4v-3.2c0-0.2,0.2-0.4,0.4-0.4h65.3c0.2,0,0.4,0.2,0.4,0.4v3.2
		C88.9,28.7,88.8,28.9,88.5,28.9z"/>
</g>
</svg>
