<?xml version="1.0" encoding="utf-8"?>
<!-- Generator: Adobe Illustrator 21.0.0, SVG Export Plug-In . SVG Version: 6.00 Build 0)  -->
<svg version="1.1" id="Layer_1" xmlns="http://www.w3.org/2000/svg" xmlns:xlink="http://www.w3.org/1999/xlink" x="0px" y="0px"
	 viewBox="0 0 32 32" style="enable-background:new 0 0 32 32;" xml:space="preserve">
<style type="text/css">
	.st0{fill:#FFFFFF;stroke:#FFFFFF;stroke-miterlimit:10;}
	.st1{fill:#FFFFFF;}
	.st2{fill:#FFFFFF;stroke:#FFFFFF;stroke-width:0.75;stroke-miterlimit:10;}
</style>
<path class="st0" d="M78.6,7.4C78.6,7.4,78.6,7.4,78.6,7.4C77.9,0.3,72-5.3,64.7-5.3C59.1-5.3,54.3-2,52,2.8c0,0,0,0,0,0
	c-0.7-0.2-1.4-0.4-2.1-0.4c-3.9,0-7,3.1-7,7c0,0.8,0.2,1.5,0.4,2.2c0,0,0,0,0,0c-3,1.8-5,5-5,8.7c0,5.6,4.5,10.1,10.1,10.1v0h1.4
	c0,0,0,0,0,0c0-1,0.1-2,0.1-2.9c0,0,0,0,0,0h-1.3c-3.8,0-7.1-2.9-7.3-6.7c-0.1-2.6,1.2-5,3.5-6.4c2.1-1.2,2.3-1.5,1.4-3.7
	C46,10.4,46,10,46,9.6c0-2.2,1.7-3.9,3.9-3.9c0,0,1-0.1,2.1,0.4c1.8,0.7,2,0,2.8-1.8c1.8-3.9,5.7-6.4,9.9-6.4
	c5.6,0,10.3,4.2,10.8,9.9c0.2,2.2,0.2,2.2,2.5,2.8c4,0.8,7,4.3,7,8.4c0,4.7-3.8,8.6-8.6,8.6v0l-1.4,0c0,0.9,0,2.1,0,3h1.4v0
	c6.4,0,11.7-5.2,11.7-11.7C88,13.2,84,8.5,78.6,7.4z"/>
<path class="st1" d="M53.8,31.1h18.1c0.1,0,0.3-0.1,0.3-0.3v-3.4c0-0.1-0.1-0.3-0.3-0.3H53.8c-0.1,0-0.3,0.1-0.3,0.3v3.4
	C53.4,30.9,53.5,31.1,53.8,31.1z M60,6.2c-0.2,0.7-4.9,13.8-5.1,14.3c-0.1,0.2,0,0.4,0.1,0.4c0.2,0,2.7,1.1,2.8,1.1
	c0.1,0,0.3-0.1,0.3-0.2s1.1-3,1.2-3.3h7c0.1,0.3,1.2,3.2,1.2,3.3c0.1,0.2,0.3,0.2,0.4,0.2c0.2,0,2.6-1.1,2.8-1.1
	c0.1-0.1,0.1-0.3,0.1-0.4c-0.1-0.4-4.9-13.7-5.1-14.3c-0.5-1.4-1.1-2.7-2.9-2.7C61,3.4,60.4,4.7,60,6.2z M65.4,15.1h-4.9l2.3-7.3
	L65.4,15.1z"/>
<line x1="203" y1="29.5" x2="203" y2="26.3"/>
<path class="st1" d="M182.1,29.9h18.1c0.1,0,0.3-0.1,0.3-0.3v-3.4c0-0.1-0.1-0.3-0.3-0.3h-18.1c-0.1,0-0.3,0.1-0.3,0.3v3.4
	C181.8,29.7,181.9,29.9,182.1,29.9z M188.4,5c-0.2,0.7-4.9,13.8-5.1,14.3c-0.1,0.2,0,0.4,0.1,0.4c0.2,0,2.7,1.1,2.8,1.1
	s0.3-0.1,0.3-0.2s1.1-3,1.2-3.3h7.1c0.1,0.3,1.2,3.2,1.2,3.3c0.1,0.2,0.3,0.2,0.4,0.2c0.2,0,2.6-1.1,2.8-1.1
	c0.1-0.1,0.1-0.3,0.1-0.4c-0.1-0.4-4.9-13.7-5.1-14.3c-0.5-1.4-1.1-2.7-2.9-2.7C189.3,2.3,188.7,3.6,188.4,5z M193.7,13.9h-4.9
	l2.4-7.3L193.7,13.9z"/>
<g>
	<path class="st2" d="M209.5,5.2c0.1-0.6,0.1-1.1,0.1-1.7c0-7.2-5.8-13-13-13c-4.2,0-8,2-10.4,5.2c0,0,0,0,0,0
		c-1.9-0.5-3.8-0.4-5.8,0.1c-4.9,1.3-8.2,5.9-8.2,10.9c0,0.2,0,0.3,0,0.5c0,0,0,0,0,0c-5.3,1.6-9,6.9-8,12.9
		c0.9,5.5,5.9,9.4,11.5,9.4h0.2c0,0,0,0,0,0c0,0,0-3.2,0-3.2h-0.2c-4.1,0-7.7-2.9-8.3-6.9c-0.7-5,3.2-9.3,8-9.3
		c0.2,0,0.5,0.1,0.7,0.1c-0.7-1.7-1-3.6-0.4-5.7c0.7-2.5,2.8-4.6,5.3-5.4c2.4-0.8,4.7-0.4,6.5,0.7c0,0,0,0,0,0
		c1.6-3.8,5.5-6.3,9.9-5.9c4,0.4,7.5,3.3,8.5,7.3c0.6,2.2,0.3,4.3-0.4,6.1c0,0,0,0,0,0c5.1,1.4,8.5,6.7,6.7,12.4
		c-1.2,4-5.1,6.7-9.3,6.7H203c0,0,0,0,0,0v3.2c0,0,0,0,0,0h0.1c5,0,9.7-2.8,11.8-7.4C217.9,15.4,215.1,8.4,209.5,5.2z"/>
	<polyline class="st2" points="179.8,26.3 175.5,26.3 175.5,29.5 179.8,29.6 	"/>
	<path class="st0" d="M176.3,26.3"/>
	<line class="st0" x1="176" y1="26.3" x2="176" y2="29.5"/>
</g>
</svg>
