<svg id="Слой_1" data-name="Слой 1" xmlns="http://www.w3.org/2000/svg" width="88.94" height="30" viewBox="0 0 88.94 30">
  <title>acloud_logo_header</title>
  <g>
    <rect width="30" height="30" style="fill: none"/>
    <path d="M2.45,28.9H20.55a.34.34,0,0,0,.32-.32V25.22a.34.34,0,0,0-.32-.32H2.45a.34.34,0,0,0-.32.32v3.37A.34.34,0,0,0,2.45,28.9ZM8.66,4c-.2.68-4.9,13.8-5.09,14.29-.1.2,0,.39.1.39s2.74,1.08,2.84,1.08.29-.1.29-.2,1.08-3,1.18-3.33H15c.1.29,1.18,3.23,1.18,3.33a.39.39,0,0,0,.39.2c.2,0,2.64-1.08,2.84-1.08a.59.59,0,0,0,.1-.39c-.1-.39-4.9-13.71-5.09-14.29C14,2.62,13.36,1.25,11.51,1.25S9.06,2.52,8.66,4ZM14,12.9H9.15L11.5,5.56Z" style="fill: #fff"/>
  </g>
  <g>
    <g>
      <path d="M36.53,18.71a.41.41,0,0,1-.24.37,12,12,0,0,1-4.77.82,8.43,8.43,0,0,1-6.33-2.37,8.65,8.65,0,0,1-2.31-6.31,9.25,9.25,0,0,1,2.59-6.81A9.08,9.08,0,0,1,32.21,1.8a13.06,13.06,0,0,1,4,.55.4.4,0,0,1,.27.39V5.58a.4.4,0,0,1-.59.35,7.82,7.82,0,0,0-3.41-.73,5.31,5.31,0,0,0-4,1.55A5.75,5.75,0,0,0,27,10.95a5.64,5.64,0,0,0,1.43,4A5,5,0,0,0,32.3,16.5a8.26,8.26,0,0,0,3.63-.81.4.4,0,0,1,.59.35Z" style="fill: #fff"/>
      <path d="M42.65,19.6H39.6a.4.4,0,0,1-.4-.4V1.5a.4.4,0,0,1,.4-.4h3.05a.4.4,0,0,1,.4.4V19.2A.4.4,0,0,1,42.65,19.6Z" style="fill: #fff"/>
      <path d="M52.26,19.91a6.72,6.72,0,0,1-4.91-1.75,6.35,6.35,0,0,1-1.79-4.75,6.35,6.35,0,0,1,1.86-4.85,7,7,0,0,1,5-1.75,6.64,6.64,0,0,1,4.88,1.75,6.23,6.23,0,0,1,1.77,4.63,6.61,6.61,0,0,1-1.83,4.92A6.8,6.8,0,0,1,52.26,19.91Zm.1-10.16a2.57,2.57,0,0,0-2.12.94,4.14,4.14,0,0,0-.76,2.66q0,3.6,2.91,3.6t2.77-3.7Q55.15,9.75,52.36,9.75Z" style="fill: #fff"/>
      <path d="M73.06,19.6H70a.4.4,0,0,1-.4-.4V17.7h-.06a4.36,4.36,0,0,1-3.82,2.21q-4.34,0-4.35-5.26V7.5a.4.4,0,0,1,.4-.4h3a.4.4,0,0,1,.4.4v6.8q0,2.65,2.1,2.65A2.08,2.08,0,0,0,69,16.23a2.93,2.93,0,0,0,.62-2V7.5a.4.4,0,0,1,.4-.4h3a.4.4,0,0,1,.4.4V19.2A.4.4,0,0,1,73.06,19.6Z" style="fill: #fff"/>
      <path d="M88.54,19.6H85.49a.4.4,0,0,1-.4-.4V17.88h0a4.33,4.33,0,0,1-3.87,2,4.74,4.74,0,0,1-3.77-1.65A6.85,6.85,0,0,1,76,13.63a7.46,7.46,0,0,1,1.57-5A5.14,5.14,0,0,1,81.67,6.8,3.51,3.51,0,0,1,85,8.53h0v-7a.4.4,0,0,1,.4-.4h3.05a.4.4,0,0,1,.4.4V19.2A.4.4,0,0,1,88.54,19.6Zm-3.38-6.08v-.94a3,3,0,0,0-.71-2,2.5,2.5,0,0,0-3.85.2,4.67,4.67,0,0,0-.72,2.76,4,4,0,0,0,.7,2.54,2.47,2.47,0,0,0,3.84,0A3.92,3.92,0,0,0,85.16,13.52Z" style="fill: #fff"/>
    </g>
    <rect x="22.88" y="24.9" width="66.06" height="4" rx="0.4" ry="0.4" style="fill: #fff"/>
  </g>
</svg>
