<svg id="Слой_1" data-name="Слой 1" xmlns="http://www.w3.org/2000/svg" width="33.71" height="25.53" viewBox="0 0 33.71 25.53">
  <title>acloud_logo_white</title>
  <g>
    <line x1="25.02" y1="25.1" x2="25.02" y2="23.04"/>
    <path d="M12.33,29.58H23.81a.21.21,0,0,0,.2-.2V27.24a.21.21,0,0,0-.2-.2H12.33a.21.21,0,0,0-.2.2v2.14A.21.21,0,0,0,12.33,29.58Zm3.94-15.79c-.12.43-3.1,8.75-3.23,9.06-.06.12,0,.25.06.25s1.74.68,1.8.68.19-.06.19-.12.68-1.92.74-2.11h4.47c.06.19.74,2,.74,2.11a.25.25,0,0,0,.25.12c.12,0,1.68-.68,1.8-.68a.37.37,0,0,0,.06-.25c-.06-.25-3.1-8.69-3.23-9.06-.31-.87-.68-1.74-1.86-1.74S16.52,12.85,16.28,13.78Zm3.41,5.65h-3.1l1.49-4.65Z" transform="translate(-0.54 -4.2)" style="fill: #fff"/>
    <path d="M29.69,13.9a7.82,7.82,0,0,0,.07-1.09,8.24,8.24,0,0,0-14.83-5h0a7.19,7.19,0,0,0-8.86,7c0,.1,0,.2,0,.3h0A7.22,7.22,0,0,0,1,23.32a7.33,7.33,0,0,0,7.3,6h.13V27.24H8.29A5.25,5.25,0,0,1,3,22.85a5.15,5.15,0,0,1,5.1-5.91c.16,0,.31,0,.46,0a5.08,5.08,0,0,1-.24-3.59A5.17,5.17,0,0,1,11.68,10a5,5,0,0,1,4.14.44h0a6.18,6.18,0,0,1,11.68.84,6.05,6.05,0,0,1-.25,3.85h0A6.18,6.18,0,0,1,31.52,23a6.12,6.12,0,0,1-5.88,4.24h-.08V29.3h.08a8.14,8.14,0,0,0,7.46-4.69A8.25,8.25,0,0,0,29.69,13.9Z" transform="translate(-0.54 -4.2)" style="fill: #fff;stroke: #fff;stroke-miterlimit: 10;stroke-width: 0.75px"/>
    <polyline points="10.33 23.04 7.59 23.04 7.59 25.1 10.33 25.16" style="fill: #fff;stroke: #fff;stroke-miterlimit: 10;stroke-width: 0.75px"/>
    <path d="M8.64,27.3" transform="translate(-0.54 -4.2)" style="fill: #fff;stroke: #fff;stroke-miterlimit: 10"/>
    <line x1="7.9" y1="23.04" x2="7.9" y2="25.1" style="fill: #fff;stroke: #fff;stroke-miterlimit: 10"/>
  </g>
</svg>
