<?xml version="1.0" encoding="UTF-8" standalone="no"?>
<svg
   xmlns:osb="http://www.openswatchbook.org/uri/2009/osb"
   xmlns:dc="http://purl.org/dc/elements/1.1/"
   xmlns:cc="http://creativecommons.org/ns#"
   xmlns:rdf="http://www.w3.org/1999/02/22-rdf-syntax-ns#"
   xmlns:svg="http://www.w3.org/2000/svg"
   xmlns="http://www.w3.org/2000/svg"
   xmlns:sodipodi="http://sodipodi.sourceforge.net/DTD/sodipodi-0.dtd"
   xmlns:inkscape="http://www.inkscape.org/namespaces/inkscape"
   aria-hidden="true"
   data-prefix="fas"
   data-icon="folder"
   class="svg-inline--fa fa-folder fa-w-16"
   role="img"
   viewBox="0 0 512 512"
   version="1.1"
   id="svg3727"
   sodipodi:docname="folder_solid_acloud.svg"
   inkscape:version="0.92.4 (5da689c313, 2019-01-14)">
  <metadata
     id="metadata3733">
    <rdf:RDF>
      <cc:Work
         rdf:about="">
        <dc:format>image/svg+xml</dc:format>
        <dc:type
           rdf:resource="http://purl.org/dc/dcmitype/StillImage" />
        <dc:title></dc:title>
      </cc:Work>
    </rdf:RDF>
  </metadata>
  <defs
     id="defs3731">
    <linearGradient
       id="linearGradient5260"
       osb:paint="solid">
      <stop
         style="stop-color:#ff4444;stop-opacity:1;"
         offset="0"
         id="stop5258" />
    </linearGradient>
  </defs>
  <sodipodi:namedview
     pagecolor="#ffffff"
     bordercolor="#666666"
     borderopacity="1"
     objecttolerance="10"
     gridtolerance="10"
     guidetolerance="10"
     inkscape:pageopacity="0"
     inkscape:pageshadow="2"
     inkscape:window-width="1920"
     inkscape:window-height="1017"
     id="namedview3729"
     showgrid="false"
     inkscape:zoom="0.921875"
     inkscape:cx="666.46041"
     inkscape:cy="203.15083"
     inkscape:window-x="1912"
     inkscape:window-y="-8"
     inkscape:window-maximized="1"
     inkscape:current-layer="svg3727" />
  <path
     d="M 465.18324,135.41418 H 272.79905 L 208.67098,71.286119 H 48.350823 c -26.563047,0 -48.09604791,21.533001 -48.09604791,48.096051 v 288.57628 c 0,26.56305 21.53300091,48.09605 48.09604791,48.09605 H 465.18324 c 26.56304,0 48.09605,-21.533 48.09605,-48.09605 V 183.51023 c 0,-26.56305 -21.53301,-48.09605 -48.09605,-48.09605 z"
     id="path3725"
     inkscape:connector-curvature="0"
     style="fill:#ff4444;fill-opacity:1;stroke-width:1.00200105" />
  <g
     id="g3818"
     transform="matrix(9.8265743,0,0,9.8265743,-2509.4177,-2331.1469)">
    <g
       id="g3758"
       transform="translate(264.80693,254.57218)">
      <path
         id="path3754"
         style="fill:#ffffff"
         transform="translate(-0.8,-4.5)"
         d="m 24.53,25.92 v 2.38 a 0.2,0.2 0 0 0 0.2,0.2 h 1.64 A 7.82,7.82 0 0 0 27.84,13 9.34,9.34 0 0 0 10,10 4.14,4.14 0 0 0 6.85,10.16 5.08,5.08 0 0 0 4.51,12.3 4.29,4.29 0 0 0 4.19,15.88 6.76,6.76 0 0 0 7.59,28.5 h 2.65 a 0.2,0.2 0 0 0 0.2,-0.2 v -2.38 a 0.2,0.2 0 0 0 -0.2,-0.2 H 8.46 A 4.49,4.49 0 0 1 4,22.23 4.31,4.31 0 0 1 6.09,17.6 c 1.34,-0.77 1.43,-0.92 0.87,-2.29 a 2.23,2.23 0 0 1 -0.14,-0.75 2.43,2.43 0 0 1 2.43,-2.43 3.46,3.46 0 0 1 1.31,0.22 c 1.11,0.45 1.24,0 1.76,-1.12 a 6.82,6.82 0 0 1 6.15,-4 6.74,6.74 0 0 1 6.72,6.15 c 0.12,1.39 0.12,1.39 1.57,1.72 a 5.34,5.34 0 0 1 4.1,6.8 5.47,5.47 0 0 1 -5.29,3.77"
         inkscape:connector-curvature="0" />
      <path
         id="path3756"
         style="fill:#ffffff"
         transform="translate(-0.8,-4.5)"
         d="m 26.37,25.72 h -1.64 a 0.2,0.2 0 0 0 -0.2,0.2 l 1,-0.2 h -0.84"
         inkscape:connector-curvature="0" />
    </g>
    <path
       id="path3760"
       style="fill:#ffffff"
       d="m 275.22693,278.57217 h 12.56 a 0.23,0.23 0 0 0 0.22,-0.22 v -2.34 a 0.23,0.23 0 0 0 -0.22,-0.22 h -12.56 a 0.23,0.23 0 0 0 -0.22,0.22 v 2.34 a 0.23,0.23 0 0 0 0.22,0.22 z m 4.31,-17.27999 c -0.14,0.48 -3.4,9.57999 -3.53,9.91999 -0.07,0.14 0,0.27 0.07,0.27 0.07,0 1.9,0.75 2,0.75 0.1,0 0.2,-0.07 0.2,-0.14 0,-0.07 0.75,-2.11 0.82,-2.31 h 4.89 c 0.07,0.2 0.82,2.24 0.82,2.31 a 0.27,0.27 0 0 0 0.27,0.14 c 0.14,0 1.83,-0.75 2,-0.75 a 0.41,0.41 0 0 0 0.07,-0.27 c -0.07,-0.27 -3.4,-9.50999 -3.53,-9.91999 -0.34,-1 -0.75,-1.9 -2,-1.9 -1.25,0 -1.81,0.88 -2.08,1.9 z m 3.74,6.17999 h -3.4 l 1.63,-5.09999 z"
       inkscape:connector-curvature="0" />
  </g>
</svg>
